<svg id="Layer_1" data-name="Layer 1" xmlns="http://www.w3.org/2000/svg" width="971" height="1235" viewBox="0 0 971 1235"><defs><style>.cls-1{fill:#39b54a;}.cls-2,.cls-3,.cls-5{fill:none;stroke-miterlimit:10;}.cls-2,.cls-3{stroke:#006837;}.cls-2{stroke-width:6px;}.cls-3{stroke-width:5px;}.cls-4{fill:#004076;}.cls-5{stroke:#39b54a;stroke-width:20px;}</style></defs><title>art 2</title><path class="cls-1" d="M931.73,400.84C953.7,373,908.26,300.4,851,255.41S729.37,196.5,707.39,224.3s6.68,86.8,64,131.78S909.76,428.64,931.73,400.84Z"/><path class="cls-2" d="M919.63,400.19C917,366.1,817.15,269.46,708.4,226.68"/><path class="cls-3" d="M761.38,298.63c9.9-20,13-39.55,5.66-43.17"/><path class="cls-3" d="M800.56,230.55c-9.09,18.4-22.43,30.35-29.81,26.73"/><path class="cls-3" d="M857.09,278.51c-3.61,12.41-15,19.08-29.5,16.77"/><path class="cls-3" d="M905.48,324.31c-6.27,12.68-17.78,16.09-32.14,9.05"/><path class="cls-3" d="M830.56,356.48c6.87-13.9,9.39-56.05.37-60.48"/><path class="cls-3" d="M871.48,393.11c12.53-25.35,14.17-53.71,1.86-59.75"/><path class="cls-4" d="M616.24,1214H362.56c-23.09,0-84.56-114.6-84.56-146V850.86c0-31.4,18.72-56.86,41.81-56.86H661.19c23.09,0,41.81,25.46,41.81,56.86L697.85,1068C697.85,1099.4,639.32,1214,616.24,1214Z"/><path class="cls-5" d="M568,794c0-245.41,145-616,270-388"/><path class="cls-5" d="M379,794c0-220.54-1-506-268-296"/><path class="cls-5" d="M450,794c-.93-370.08-26-555,329-563"/><path class="cls-5" d="M540,794c-8.79-390.44-295-573-2-708"/><path class="cls-5" d="M490,794c0-141.5,2-286,272-201"/><path class="cls-5" d="M420,794c0-278,81-666-312-464"/><path class="cls-1" d="M866,154.74c8.93-42-79.27-96.75-165.51-115.09s-163.4.82-172.32,42.79,53.74,90.88,140,109.23S857,196.72,866,154.74Z"/><path class="cls-2" d="M852.5,160.5c-21.14-35.68-181.17-87.52-322-76"/><path class="cls-3" d="M626.5,134.5c0-27.08-7-50-17-50"/><path class="cls-3" d="M632.5,39.5c0,24.87-8,45-18,45"/><path class="cls-3" d="M719.5,61.5c2.73,15.43-6,28.76-23,34"/><path class="cls-3" d="M796.5,85.5c0,17.13-10.65,27-30,27"/><path class="cls-3" d="M732.5,160.5c0-18.79-19.84-66-32-66"/><path class="cls-3" d="M796.5,178.5c0-34.27-13.42-66-30-66"/><path class="cls-1" d="M851.72,654c8.76-21.09-25.8-58.33-63.49-76.32s-75.34-15.48-84.09,5.61S718.84,636,756.53,654,843,675.05,851.72,654Z"/><path class="cls-2" d="M844.88,655.66c-5.78-20.72-73.75-63.42-139.88-71.1"/><path class="cls-3" d="M743.68,620.06c3-14.17,2.28-26.84-2.3-27.81"/><path class="cls-3" d="M757,570.94c-2.75,13-8.68,22.76-13.27,21.79"/><path class="cls-3" d="M794.58,590.92c-.45,8.34-6,14.46-14.35,15.55"/><path class="cls-3" d="M827.39,611c-1.9,9-7.89,13.09-16.8,11.21"/><path class="cls-3" d="M789.62,644c2.08-9.83-1.84-36.46-7.44-37.64"/><path class="cls-3" d="M817.1,659.63c3.79-17.93,1.12-35.84-6.51-37.45"/><path class="cls-1" d="M936.35,493.84c25.85-16.59,1.53-79-39.59-123s-95.4-66.26-121.26-49.67S762,386.9,803.14,430.92,910.5,510.43,936.35,493.84Z"/><path class="cls-2" d="M925.68,491.12c5.27-25.82-62.26-116.1-149.81-168"/><path class="cls-3" d="M807.08,386.39c13.33-13.06,20.51-27,14.72-31"/><path class="cls-3" d="M857.32,343.05c-12.24,12-26.83,18.4-32.61,14.34"/><path class="cls-3" d="M897.08,389.14c-6,8.56-17.66,11.41-30.11,7"/><path class="cls-3" d="M930,432.13c-8.44,8.25-19.49,8.66-30.74.77"/><path class="cls-3" d="M855.91,442.16c9.25-9.05,21-39.9,13.88-44.86"/><path class="cls-3" d="M884.27,477c16.86-16.52,24.68-37.29,15-44.05"/><path class="cls-1" d="M40.72,443.87c-22.39-27.57,24.26-99.36,83-143.75s124.44-58,146.82-30.43S263.45,355.6,204.75,400,63.1,471.45,40.72,443.87Z"/><path class="cls-2" d="M53.09,443.26c2.8-33.74,105.1-129.15,216.38-171.22"/><path class="cls-3" d="M215.12,343.14c-10.07-19.86-13.23-39.19-5.67-42.76"/><path class="cls-3" d="M175.25,275.64c9.25,18.23,22.85,30.1,30.4,26.53"/><path class="cls-3" d="M117.33,323c3.66,12.3,15.28,18.93,30.12,16.68"/><path class="cls-3" d="M67.76,368.19c6.37,12.56,18.13,16,32.82,9"/><path class="cls-3" d="M144.26,400.22c-7-13.78-9.46-55.51-.22-59.87"/><path class="cls-3" d="M102.32,436.37c-12.73-25.12-14.33-53.2-1.74-59.15"/><path class="cls-1" d="M21.51,636.94c-22.5-25.28,4-97.61,44.63-144.17S157.91,429,180.41,454.24s7.82,83.52-32.79,130.09S44,662.23,21.51,636.94Z"/><path class="cls-2" d="M31.45,635.59c-3.05-32.81,64.88-131.43,148.49-179"/><path class="cls-3" d="M147.07,528.71c-11.29-18.58-16.9-37.09-11.33-41"/><path class="cls-3" d="M104.1,465.89c10.37,17.07,23.27,27.7,28.84,23.78"/><path class="cls-3" d="M64.59,515.26C69.5,526.93,80,532.62,91.64,529.53"/><path class="cls-3" d="M31.51,562.07c7.15,11.75,17.22,14.33,28.05,6.7"/><path class="cls-3" d="M98.6,588.31c-7.84-12.89-16.42-53.1-9.62-57.89"/><path class="cls-3" d="M70.29,625.87c-14.29-23.51-20-50.56-10.73-57.1"/></svg>