<svg id="Layer_1" data-name="Layer 1" xmlns="http://www.w3.org/2000/svg" width="971" height="1235" viewBox="0 0 971 1235"><defs><style>.cls-1{fill:#a2352d;}.cls-2{fill:#693800;}.cls-3{fill:#2d772d;}</style></defs><title>art 1</title><path class="cls-1" d="M616.24,1214H362.56c-23.09,0-84.56-114.6-84.56-146V850.86c0-31.4,18.72-56.86,41.81-56.86H661.19c23.09,0,41.81,25.46,41.81,56.86L697.85,1068C697.85,1099.4,639.32,1214,616.24,1214Z"/><rect class="cls-2" x="457" y="448" width="67" height="346"/><path class="cls-3" d="M480.07,452.38c3.4,11.38,109.33-10.24,236.59-48.28S954.4,418.38,951,407s-119.4-82.14-246.66-44.1S476.67,441,480.07,452.38Z"/><path class="cls-3" d="M499.58,444.87c3.31-11.4-97.4-50.7-224.94-87.78s-192-141-195.29-129.57S135.09,361.3,262.64,398.38,496.26,456.28,499.58,444.87Z"/><path class="cls-3" d="M480.28,454.79c8.11,8.72,93.54-57.53,190.82-148s288-19.1,279.9-27.82-212-94.2-309.26-3.76S472.18,446.07,480.28,454.79Z"/><path class="cls-3" d="M480,432.37C477.83,444,581.9,473.29,712.47,497.7S839.82,644.67,842,633s8.93-153.16-121.63-177.57S482.2,420.7,480,432.37Z"/><path class="cls-3" d="M54.07,504.38c3.4,11.38,109.33-10.24,236.59-48.28S528.4,470.38,525,459s-119.4-82.14-246.66-44.1S50.67,493,54.07,504.38Z"/><path class="cls-3" d="M498.87,451.81c9.81-6.68-42.83-101.11-117.57-210.9S323,10,313.19,16.66,271,155.31,345.75,265.11,489.05,458.49,498.87,451.81Z"/><path class="cls-3" d="M169,717c7.44,9.25,16.88-102,120.38-185.25S514.94,455.27,507.49,446s-141.56-31-245.06,52.22S161.56,707.75,169,717Z"/><path class="cls-3" d="M485.31,460.34c11.72,1.91,38.5-102.83,59.81-233.93S661.72,18.73,650,16.83,524,88.41,502.68,219.51,473.59,458.44,485.31,460.34Z"/><path class="cls-3" d="M421.28,423.89c-3.27,11.42,97.6,50.32,225.29,86.88S743.73,664.42,747,653s39.1-147-88.59-183.57S424.55,412.48,421.28,423.89Z"/><path class="cls-3" d="M463.77,432.15c-3.9-13.07,91.67-53.18,213.48-89.59S855.48,191.23,859.39,204.3s-46.19,149.18-168,185.59S467.68,445.22,463.77,432.15Z"/><path class="cls-3" d="M485,460c11.63,2.34,61.38-53.83,87.6-184s180-141.62,168.4-144-184.29,5.27-210.51,135.48S473.37,457.66,485,460Z"/><path class="cls-3" d="M77.47,611.65c6.93,9.64,100-45.43,207.78-123s229.34-64.26,222.4-73.9-139.69-38.57-247.51,39S70.53,602,77.47,611.65Z"/><path class="cls-3" d="M11.07,458.38c3.4,11.38,109.33-10.24,236.59-48.28S485.4,424.38,482,413s-119.4-82.14-246.66-44.1S7.67,447,11.07,458.38Z"/><path class="cls-3" d="M460.24,459.24c8.28-8.51-62.2-90.48-157.42-183.08S199.46,61.58,191.18,70.1,177.62,214.38,272.84,307,452,467.76,460.24,459.24Z"/><path class="cls-3" d="M527.67,422.75c10.65-5.26-28.46-106-87.35-225.1S211.64,109.74,201,115,342.89,97.65,401.78,216.71,517,428,527.67,422.75Z"/><path class="cls-3" d="M289,717c11.13,4.13,35-139.06,125-236.74S625.72,371.17,617,363.13s-128.79,7.72-234.61,88C260.22,543.79,257.94,705.48,289,717Z"/><path class="cls-3" d="M335.75,359.87c-6.81,9.73,78.38,75.91,184.8,155.39C646.51,609.33,660.46,714,663.87,700.7c2.94-11.5-9.81-144.59-118.68-220.68S342.55,350.13,335.75,359.87Z"/><path class="cls-3" d="M348.18,362.34c-4.93,10.81,89.06,64.23,209.91,119.33S655.07,643.8,660,633s36.79-135.36-84.07-190.46S353.11,351.54,348.18,362.34Z"/><path class="cls-3" d="M331,665c11.69,2.08,150-95,173.28-225.78S765.69,156.08,754,154,468.25,296.23,445,427,319.31,662.92,331,665Z"/><path class="cls-3" d="M470.41,29.28c-11.79,1.41-8.59,109.47,7.15,241.35S422.88,502.44,434.67,501,536,397.43,520.26,265.54,482.2,27.87,470.41,29.28Z"/></svg>