<svg id="Layer_1" data-name="Layer 1" xmlns="http://www.w3.org/2000/svg" width="1019" height="177" viewBox="0 0 1019 177"><defs><style>.cls-1{fill:#c58fd1;}</style></defs><title>Artboard 1</title><path class="cls-1" d="M58.72,49.55l20.39,48,20.56-48h42L94.8,159.94H63.59L16.69,49.55ZM81.09,146.7l35.72-83.91h-5l-32.65,76.3L46.63,62.79H41.58L77.3,146.7Z"/><path class="cls-1" d="M144.41,49.55h70.9v29H182.83V90.76h31.94v27.47H182.83V131h33.74v29H144.41Zm58.81,97.15v-4H167.14V106.48h34.28v-4H167.14V66.77h36.08v-4H162.45V146.7Z"/><path class="cls-1" d="M227.39,49.55h40.05V131h33.19v29H227.39Zm63.14,97.15v-4H250.12V62.79h-4.69V146.7Z"/><path class="cls-1" d="M307,49.55h39V75l22.73-25.49h47.09L373.33,100l44.56,59.91H371.53l-25.62-34.09v34.09H307Zm22.73,97.15V124.36L348.44,103l32.83,43.69h5.59L351.68,99.53,384,62.79H378.2l-48.52,55V62.79H325V146.7Z"/><path class="cls-1" d="M401.66,104.83a52.4,52.4,0,0,1,5-22.51,58.2,58.2,0,0,1,13.53-18.45,64.15,64.15,0,0,1,20.11-12.41,68.43,68.43,0,0,1,49.07,0,64.27,64.27,0,0,1,20.11,12.41A58.5,58.5,0,0,1,523,82.32a53.56,53.56,0,0,1,0,45,58.5,58.5,0,0,1-13.53,18.45,64.27,64.27,0,0,1-20.11,12.41,68.43,68.43,0,0,1-49.07,0,64.15,64.15,0,0,1-20.11-12.41,58.2,58.2,0,0,1-13.53-18.45A52.4,52.4,0,0,1,401.66,104.83Zm16.95,0a38.25,38.25,0,0,0,3.61,16.47,42.81,42.81,0,0,0,9.92,13.48,47,47,0,0,0,14.71,9.11,50.3,50.3,0,0,0,35.89,0,47,47,0,0,0,14.71-9.11,42.81,42.81,0,0,0,9.92-13.48,39.38,39.38,0,0,0,0-32.94,43,43,0,0,0-9.92-13.49,47.12,47.12,0,0,0-14.71-9.1,50.3,50.3,0,0,0-35.89,0,47.12,47.12,0,0,0-14.71,9.1,43,43,0,0,0-9.92,13.49A38.25,38.25,0,0,0,418.61,104.83Zm46.18,38.06a43.17,43.17,0,0,1-16.14-3,42.38,42.38,0,0,1-13.17-8.19,38.7,38.7,0,0,1-8.93-12.08,35.37,35.37,0,0,1,0-29.62,38.7,38.7,0,0,1,8.93-12.08,42.6,42.6,0,0,1,13.17-8.2,45.37,45.37,0,0,1,32.29,0,42.6,42.6,0,0,1,13.17,8.2A38.7,38.7,0,0,1,503,90a35.37,35.37,0,0,1,0,29.62,38.7,38.7,0,0,1-8.93,12.08,42.38,42.38,0,0,1-13.17,8.19A43.18,43.18,0,0,1,464.79,142.89Zm-25.25-38.06a21,21,0,0,0,2,9,23.43,23.43,0,0,0,5.42,7.36,25.63,25.63,0,0,0,8,5,27.48,27.48,0,0,0,19.67,0,25.63,25.63,0,0,0,8-5,23.43,23.43,0,0,0,5.42-7.36,21.54,21.54,0,0,0,0-18,23.43,23.43,0,0,0-5.42-7.36,25.82,25.82,0,0,0-8-5,27.48,27.48,0,0,0-19.67,0,25.82,25.82,0,0,0-8,5,23.43,23.43,0,0,0-5.42,7.36A21,21,0,0,0,439.54,104.83Z"/><path class="cls-1" d="M537.85,49.55H569.6L601,91.92,632.2,49.55H664V159.94H625.53V120.22L601,153.32l-24.71-33.1v39.72H537.85Zm22.73,97.15v-76l40.41,54,40.23-53.95v76h4.69V62.79h-4.69L601,117.24,560.58,62.79h-4.69V146.7Z"/><path class="cls-1" d="M676.58,49.55h31.75l31.39,42.37,31.21-42.37h31.75V159.94H764.25V120.22l-24.53,33.1L715,120.22v39.72H676.58Zm22.73,97.15v-76l40.41,54L780,70.74v76h4.69V62.79H780l-40.23,54.45L699.31,62.79h-4.69V146.7Z"/><path class="cls-1" d="M815.3,49.55h70.9v29H853.73V90.76h31.93v27.47H853.73V131h33.73v29H815.3Zm58.81,97.15v-4H838V106.48h34.28v-4H838V66.77h36.08v-4H833.34V146.7Z"/><path class="cls-1" d="M898.29,49.55h31.57l33.19,42.54V49.55h37.7V159.94H969l-33-42.37v42.37h-37.7Zm21.46,97.15V70.24l59.53,76.46H984V62.79h-4.69v76.46L919.75,62.79h-4.69V146.7Z"/></svg>