<svg id="Layer_1" data-name="Layer 1" xmlns="http://www.w3.org/2000/svg" width="528" height="120" viewBox="0 0 528 120"><defs><style>.cls-1{fill:#49454b;}.cls-2{fill:#f6b1cb;}</style></defs><title>goddag</title><rect class="cls-1" x="6" y="19" width="505" height="95" rx="12" ry="12"/><rect class="cls-2" x="13" y="12" width="502" height="95" rx="12" ry="12"/><path d="M57.75,54.94a7.46,7.46,0,0,0-2.7-1.48,10.86,10.86,0,0,0-3.18-.5,8,8,0,0,0-3.18.62,7.58,7.58,0,0,0-2.49,1.75A8,8,0,0,0,44.55,58a9.23,9.23,0,0,0-.6,3.35,8.46,8.46,0,0,0,.66,3.36,7.86,7.86,0,0,0,1.8,2.67,8,8,0,0,0,2.67,1.74,8.5,8.5,0,0,0,3.27.63,7.85,7.85,0,0,0,3.72-.87A8.73,8.73,0,0,0,59,66.52h-3.6V58.11H70.77V71.44a21.74,21.74,0,0,1-3.3,4.46,20.31,20.31,0,0,1-4.29,3.45,20.66,20.66,0,0,1-5.13,2.23,21.24,21.24,0,0,1-5.7.77,20.85,20.85,0,0,1-21-21,21.55,21.55,0,0,1,1.56-8.16A21.2,21.2,0,0,1,37.2,46.5,20.36,20.36,0,0,1,43.68,42a20,20,0,0,1,8.07-1.65,22.61,22.61,0,0,1,5.82.67,22.22,22.22,0,0,1,4.14,1.5A15.5,15.5,0,0,1,65,44.61Zm.6-7.75a11.78,11.78,0,0,0-1.74-.6,19.19,19.19,0,0,0-2-.42A17.63,17.63,0,0,0,52.11,46a15.59,15.59,0,0,0-5.94,1.13,15,15,0,0,0-4.8,3.16,14.54,14.54,0,0,0-3.21,4.82A16.2,16.2,0,0,0,37,61.35a15.74,15.74,0,0,0,1.2,6.24,14.21,14.21,0,0,0,3.3,4.83,15.3,15.3,0,0,0,4.89,3.16,15.62,15.62,0,0,0,6,1.13,14.66,14.66,0,0,0,7.5-1.94,16.06,16.06,0,0,0,5.46-5.19V61.71H59v1.44h4.8v6a13.5,13.5,0,0,1-11.4,6,14.4,14.4,0,0,1-5.37-1,13.31,13.31,0,0,1-4.38-2.83,13,13,0,0,1-3-4.38,14.17,14.17,0,0,1-1.08-5.61,14.55,14.55,0,0,1,1.05-5.6,13.39,13.39,0,0,1,2.88-4.39,13,13,0,0,1,4.29-2.82,14.17,14.17,0,0,1,5.34-1,11.08,11.08,0,0,1,2,.17c.64.12,1.2.25,1.68.36l1.56.49Z"/><path d="M73.17,61.35a20.52,20.52,0,0,1,1.65-8.16A21,21,0,0,1,86,42a21,21,0,0,1,16.32,0,21,21,0,0,1,11.19,11.19,21,21,0,0,1,0,16.33,21,21,0,0,1-11.19,11.19,21.12,21.12,0,0,1-16.32,0A21,21,0,0,1,74.82,69.52,20.5,20.5,0,0,1,73.17,61.35Zm5.64,0a15,15,0,0,0,1.2,6,15.57,15.57,0,0,0,8.19,8.19,15.57,15.57,0,0,0,11.94,0,15.57,15.57,0,0,0,8.19-8.19,15.48,15.48,0,0,0,0-11.95A15.47,15.47,0,0,0,105,50.5a15.71,15.71,0,0,0-4.89-3.31,15.57,15.57,0,0,0-11.94,0,15.71,15.71,0,0,0-4.89,3.31A15.47,15.47,0,0,0,80,55.38,15,15,0,0,0,78.81,61.35Zm15.36,13.8a13.51,13.51,0,0,1-5.37-1.07,14.23,14.23,0,0,1-4.38-3,14,14,0,0,1-3-4.37,13.92,13.92,0,0,1,0-10.75,14,14,0,0,1,7.35-7.35,14,14,0,0,1,10.74,0A14,14,0,0,1,106.89,56a13.92,13.92,0,0,1,0,10.75,14,14,0,0,1-3,4.37,14.23,14.23,0,0,1-4.38,3A13.51,13.51,0,0,1,94.17,75.15Zm-8.4-13.8a8.13,8.13,0,0,0,.66,3.27,8.27,8.27,0,0,0,1.8,2.67,8.17,8.17,0,0,0,2.67,1.8,8.43,8.43,0,0,0,6.54,0,8.17,8.17,0,0,0,2.67-1.8,8.27,8.27,0,0,0,1.8-2.67,8.43,8.43,0,0,0,0-6.54,8.45,8.45,0,0,0-1.8-2.66,8.69,8.69,0,0,0-2.67-1.81,8.55,8.55,0,0,0-6.54,0,8.69,8.69,0,0,0-2.67,1.81,8.45,8.45,0,0,0-1.8,2.66A8.2,8.2,0,0,0,85.77,61.35Z"/><path d="M118.47,81.33v-40h11.1a36.23,36.23,0,0,1,10.05,1.27,20.09,20.09,0,0,1,7.44,3.77,16.44,16.44,0,0,1,4.62,6.27,22.31,22.31,0,0,1,1.59,8.67A22.17,22.17,0,0,1,151.68,70a16.14,16.14,0,0,1-4.62,6.27A20.15,20.15,0,0,1,139.62,80a35.47,35.47,0,0,1-10.05,1.29Zm6-4.79h5.1q8.76,0,13.23-4c3-2.65,4.47-6.4,4.47-11.25s-1.5-8.58-4.47-11.21-7.39-4-13.23-4h-5.1ZM126,75.09V47.56h3.54q7.62,0,11.85,3.44c2.82,2.31,4.23,5.73,4.23,10.29s-1.41,8-4.23,10.32-6.77,3.48-11.85,3.48Zm5.22-5.15c3,0,5.31-.71,7-2.13s2.46-3.59,2.46-6.52-.82-5.07-2.46-6.48a10.48,10.48,0,0,0-7-2.1Z"/><path d="M168.57,81.33v-40h11.1a36.28,36.28,0,0,1,10.05,1.27,20.09,20.09,0,0,1,7.44,3.77,16.65,16.65,0,0,1,4.62,6.27,22.31,22.31,0,0,1,1.59,8.67A22.17,22.17,0,0,1,201.78,70a16.34,16.34,0,0,1-4.62,6.27A20.15,20.15,0,0,1,189.72,80a35.51,35.51,0,0,1-10.05,1.29Zm6-4.79h5.1c5.83,0,10.25-1.33,13.23-4s4.47-6.4,4.47-11.25-1.5-8.58-4.47-11.21-7.4-4-13.23-4h-5.1Zm1.56-1.45V47.56h3.54c5.07,0,9,1.15,11.85,3.44s4.23,5.73,4.23,10.29-1.41,8-4.23,10.32-6.78,3.48-11.85,3.48Zm5.22-5.15c3,0,5.31-.71,7-2.13s2.46-3.59,2.46-6.52-.83-5.07-2.46-6.48a10.48,10.48,0,0,0-7-2.1Z"/><path d="M218.54,41.31h9.61l15.17,40H230.73l-1.33-3.6H217.29L216,81.33h-12.6Zm-6.23,35.23,1.13-3h19.81l1.13,3h1.68L224.48,46.11h-2.27L210.62,76.54Zm11-29,9.37,24.53H214ZM226,68.92l-2.7-7-2.69,7Z"/><path d="M269.72,54.94a7.46,7.46,0,0,0-2.7-1.48,10.86,10.86,0,0,0-3.18-.5,8,8,0,0,0-3.18.62,7.58,7.58,0,0,0-2.49,1.75A8,8,0,0,0,256.52,58a9.23,9.23,0,0,0-.6,3.35,8.46,8.46,0,0,0,.66,3.36,7.86,7.86,0,0,0,1.8,2.67,8,8,0,0,0,2.67,1.74,8.5,8.5,0,0,0,3.27.63,7.85,7.85,0,0,0,3.72-.87,8.73,8.73,0,0,0,2.88-2.36h-3.6V58.11h15.42V71.44a21.74,21.74,0,0,1-3.3,4.46,20.31,20.31,0,0,1-4.29,3.45A20.66,20.66,0,0,1,270,81.58a21.24,21.24,0,0,1-5.7.77,20.85,20.85,0,0,1-21-21,21.55,21.55,0,0,1,1.56-8.16,21.2,21.2,0,0,1,4.29-6.69,20.36,20.36,0,0,1,6.48-4.5,20,20,0,0,1,8.07-1.65,22.61,22.61,0,0,1,5.82.67,22.22,22.22,0,0,1,4.14,1.5,15.5,15.5,0,0,1,3.3,2.09Zm.6-7.75a11.78,11.78,0,0,0-1.74-.6,19.19,19.19,0,0,0-2-.42,17.63,17.63,0,0,0-2.52-.17,15.59,15.59,0,0,0-5.94,1.13,15,15,0,0,0-4.8,3.16,14.54,14.54,0,0,0-3.21,4.82A16.2,16.2,0,0,0,249,61.35a15.74,15.74,0,0,0,1.2,6.24,14.21,14.21,0,0,0,3.3,4.83,15.3,15.3,0,0,0,4.89,3.16,15.62,15.62,0,0,0,6,1.13,14.66,14.66,0,0,0,7.5-1.94,16.06,16.06,0,0,0,5.46-5.19V61.71h-6.36v1.44h4.8v6a13.5,13.5,0,0,1-11.4,6,14.4,14.4,0,0,1-5.37-1,13.31,13.31,0,0,1-4.38-2.83,13,13,0,0,1-3-4.38,14.17,14.17,0,0,1-1.08-5.61,14.55,14.55,0,0,1,1-5.6,13.39,13.39,0,0,1,2.88-4.39,13,13,0,0,1,4.29-2.82,14.17,14.17,0,0,1,5.34-1,11.08,11.08,0,0,1,2,.17c.64.12,1.2.25,1.68.36l1.56.49Z"/><path d="M303.32,51.81h-7.38V41.31h28v10.5h-7.38V81.33h-13.2Zm7.38,24.73v-29h8.58V46.11H300.56v1.45h8.58v29Z"/><path d="M326,41.31h13.56v40H326Zm7.56,35.23V46.11H332V76.54Z"/><path d="M343.76,41.31h13.32V70.83h11v10.5H343.76Zm21,35.23V75.09H351.32v-29h-1.56V76.54Z"/><path d="M382.22,81.33v-40h11.1a36.23,36.23,0,0,1,10.05,1.27,20.09,20.09,0,0,1,7.44,3.77,16.44,16.44,0,0,1,4.62,6.27A22.13,22.13,0,0,1,417,61.29,22,22,0,0,1,415.43,70a16.14,16.14,0,0,1-4.62,6.27A20.15,20.15,0,0,1,403.37,80a35.47,35.47,0,0,1-10.05,1.29Zm6-4.79h5.1q8.76,0,13.23-4T411,61.29c0-4.83-1.49-8.58-4.47-11.21s-7.39-4-13.23-4h-5.1Zm1.56-1.45V47.56h3.54q7.62,0,11.85,3.44c2.82,2.31,4.23,5.73,4.23,10.29s-1.41,8-4.23,10.32-6.77,3.48-11.85,3.48ZM395,69.94q4.5,0,7-2.13t2.46-6.52q0-4.36-2.46-6.48a10.46,10.46,0,0,0-7-2.1Z"/><path d="M420.32,41.31h13.56v40H420.32Zm7.56,35.23V46.11h-1.56V76.54Z"/><path d="M463.58,54.94a7.46,7.46,0,0,0-2.7-1.48,10.86,10.86,0,0,0-3.18-.5,8,8,0,0,0-3.18.62A7.58,7.58,0,0,0,452,55.33,8,8,0,0,0,450.38,58a9.23,9.23,0,0,0-.6,3.35,8.46,8.46,0,0,0,.66,3.36,7.86,7.86,0,0,0,1.8,2.67,8,8,0,0,0,2.67,1.74,8.5,8.5,0,0,0,3.27.63,7.85,7.85,0,0,0,3.72-.87,8.73,8.73,0,0,0,2.88-2.36h-3.6V58.11H476.6V71.44a21.74,21.74,0,0,1-3.3,4.46A20.31,20.31,0,0,1,469,79.35a20.66,20.66,0,0,1-5.13,2.23,21.24,21.24,0,0,1-5.7.77,20.85,20.85,0,0,1-21-21,21.55,21.55,0,0,1,1.56-8.16A21.2,21.2,0,0,1,443,46.5a20.36,20.36,0,0,1,6.48-4.5,20,20,0,0,1,8.07-1.65,22.61,22.61,0,0,1,5.82.67,22.22,22.22,0,0,1,4.14,1.5,15.5,15.5,0,0,1,3.3,2.09Zm.6-7.75a11.78,11.78,0,0,0-1.74-.6,19.19,19.19,0,0,0-2-.42,17.63,17.63,0,0,0-2.52-.17A15.59,15.59,0,0,0,452,47.13a15,15,0,0,0-4.8,3.16A14.54,14.54,0,0,0,444,55.11a16.2,16.2,0,0,0-1.17,6.24,15.74,15.74,0,0,0,1.2,6.24,14.21,14.21,0,0,0,3.3,4.83,15.3,15.3,0,0,0,4.89,3.16,15.62,15.62,0,0,0,6,1.13,14.66,14.66,0,0,0,7.5-1.94,16.06,16.06,0,0,0,5.46-5.19V61.71h-6.36v1.44h4.8v6a13.5,13.5,0,0,1-11.4,6,14.4,14.4,0,0,1-5.37-1,13.31,13.31,0,0,1-4.38-2.83,13,13,0,0,1-3-4.38,14.17,14.17,0,0,1-1.08-5.61,14.55,14.55,0,0,1,1.05-5.6,13.39,13.39,0,0,1,2.88-4.39,13,13,0,0,1,4.29-2.82,14.17,14.17,0,0,1,5.34-1,11.08,11.08,0,0,1,2,.17c.64.12,1.2.25,1.68.36l1.56.49Z"/><path d="M479.6,41.31h13.68l-2,28.21h-9.6Zm.42,30h12.84v10H480ZM489.26,77V75.63h-5.64V77Zm-2.1-11.29v-20h-1.44v20Z"/></svg>
