<svg id="Layer_1" data-name="Layer 1" xmlns="http://www.w3.org/2000/svg" width="401" height="113" viewBox="0 0 401 113"><defs><style>.cls-1{fill:#49454b;}.cls-2{fill:#f6b1cb;}</style></defs><title>tryk</title><rect class="cls-1" x="6" y="12" width="383" height="95" rx="12" ry="12"/><rect class="cls-2" x="13" y="5" width="383" height="95" rx="12" ry="12"/><path d="M37.53,44.81H30.15V34.31h28v10.5H50.73V74.33H37.53Zm7.38,24.73v-29h8.58V39.11H34.77v1.45h8.58v29Z"/><path d="M60.21,34.31H74a24.09,24.09,0,0,1,7.11,1,16.88,16.88,0,0,1,5.67,3,13.78,13.78,0,0,1,3.75,4.9,15.73,15.73,0,0,1,1.35,6.69,13.75,13.75,0,0,1-.84,5.1,15.62,15.62,0,0,1-1.86,3.48,12.66,12.66,0,0,1-2.7,2.63L94,74.33H79L73,64.19V74.33H60.21ZM72.69,60.42a21.52,21.52,0,0,0,4.56-.48l5.7,9.6h1.86l-6-10.08A11.22,11.22,0,0,0,84,55.94a9.44,9.44,0,0,0,1.92-6.15,10,10,0,0,0-1-4.62,9.85,9.85,0,0,0-2.79-3.33,12.47,12.47,0,0,0-4.17-2,18.82,18.82,0,0,0-5.22-.7H66.21V69.54h1.56V60.42ZM67.77,59V40.56h4.92q5.46,0,8.55,2.4a8.14,8.14,0,0,1,3.09,6.83,8,8,0,0,1-3.09,6.81Q78.15,59,72.69,59ZM73,54h.66a7,7,0,0,0,3.87-1,3.75,3.75,0,0,0,1.59-3.42,3.78,3.78,0,0,0-1.59-3.43,7.1,7.1,0,0,0-3.87-1H73Z"/><path d="M104.31,57.11,91.89,34.31h14.22l4.62,8.46,4.56-8.46h14.22l-12.42,22.8V74.33H104.31Zm7.2,12.43V55.19l8.76-16.08h-1.86l-7.68,14.22L103,39.11h-1.8l8.7,16.08V69.54Z"/><path d="M130.41,34.31h13v9.25l7.56-9.25h15.65l-14.09,18.3,14.82,21.72H151.89L143.37,62V74.33h-13ZM138,69.54v-8.1l6.24-7.75,10.91,15.85H157l-11.7-17.1L156,39.11H154.1L138,59V39.11h-1.56V69.54Z"/><path d="M211.65,49.56a15.72,15.72,0,0,1-1.45,7,12.51,12.51,0,0,1-3.93,4.71A16.69,16.69,0,0,1,200.45,64a29.26,29.26,0,0,1-7.17.83v9.54H180.5v-40h12.78a29.74,29.74,0,0,1,7.17.84,17,17,0,0,1,5.82,2.64,12.74,12.74,0,0,1,3.93,4.71A15.81,15.81,0,0,1,211.65,49.56Zm-5.83,0a11,11,0,0,0-.92-4.68,8.71,8.71,0,0,0-2.62-3.25,11.69,11.69,0,0,0-4-1.88,19,19,0,0,0-5-.64H186.5V69.54h1.56V60h5.22a18.58,18.58,0,0,0,5-.64,11.88,11.88,0,0,0,4-1.88,8.64,8.64,0,0,0,2.62-3.25A11,11,0,0,0,205.82,49.56Zm-1.67,0a9.33,9.33,0,0,1-.91,4.32,7.15,7.15,0,0,1-2.4,2.75,9.77,9.77,0,0,1-3.44,1.47,18.38,18.38,0,0,1-4.12.46h-5.22v-18h5.22a19,19,0,0,1,4.12.44,10.36,10.36,0,0,1,3.44,1.48,7.3,7.3,0,0,1,2.4,2.75A9.41,9.41,0,0,1,204.15,49.56ZM193.28,54h.54a4.87,4.87,0,0,0,3.63-1.17,4.58,4.58,0,0,0,1.11-3.27,4.55,4.55,0,0,0-1.11-3.27,4.79,4.79,0,0,0-3.63-1.18h-.54Z"/><path d="M226.52,34.31h9.6l15.18,40H238.7l-1.32-3.6H225.26l-1.32,3.6h-12.6Zm-6.24,35.23,1.14-3h19.8l1.14,3H244L232.46,39.11h-2.28L218.6,69.54Zm11-29,9.36,24.53H222ZM223.7,25.38a7.29,7.29,0,0,1,.6-2.94A8.25,8.25,0,0,1,225.92,20a7.78,7.78,0,0,1,2.4-1.65,7.5,7.5,0,0,1,5.88,0A8.16,8.16,0,0,1,236.63,20a8,8,0,0,1,1.65,2.44,7.29,7.29,0,0,1,.6,2.94,7.42,7.42,0,0,1-2.25,5.33,7.72,7.72,0,0,1-2.43,1.62,7.39,7.39,0,0,1-5.88,0,7.37,7.37,0,0,1-2.4-1.62,7.47,7.47,0,0,1-1.62-2.4A7.21,7.21,0,0,1,223.7,25.38Zm2.4,0a5.12,5.12,0,0,0,5.16,5.16A5.08,5.08,0,0,0,235,29a5,5,0,0,0,1.53-3.66,5.24,5.24,0,0,0-5.22-5.23,4.94,4.94,0,0,0-3.66,1.54A5.08,5.08,0,0,0,226.1,25.38Zm1.14,0a4,4,0,0,1,1.14-2.92,3.89,3.89,0,0,1,2.88-1.17,4,4,0,0,1,4.08,4.09,3.81,3.81,0,0,1-1.17,2.87,4,4,0,0,1-2.91,1.15,3.91,3.91,0,0,1-4-4ZM234,61.92l-2.7-7-2.7,7Zm-4.38-36.54A1.64,1.64,0,0,0,231.26,27a1.66,1.66,0,0,0,1.17-.48,1.51,1.51,0,0,0,.51-1.14,1.76,1.76,0,0,0-1.68-1.69,1.52,1.52,0,0,0-1.14.52A1.66,1.66,0,0,0,229.64,25.38Z"/><path d="M264.2,34.31h10.56L285.2,49.67l10.38-15.36h10.56v40H293.36V59.94l-8.16,12-8.22-12V74.33H264.2Zm7.56,35.23V42L285.2,61.56,298.58,42V69.54h1.56V39.11h-1.56L285.2,58.85,271.76,39.11H270.2V69.54Z"/><path d="M310.34,34.31H323.9v40H310.34Zm7.56,35.23V39.11h-1.56V69.54Z"/><path d="M353.6,47.94a7.46,7.46,0,0,0-2.7-1.48,10.86,10.86,0,0,0-3.18-.5,8,8,0,0,0-3.18.62,7.58,7.58,0,0,0-2.49,1.75A8,8,0,0,0,340.4,51a9.23,9.23,0,0,0-.6,3.35,8.46,8.46,0,0,0,.66,3.36,7.86,7.86,0,0,0,1.8,2.67,8,8,0,0,0,2.67,1.74,8.5,8.5,0,0,0,3.27.63,7.85,7.85,0,0,0,3.72-.87,8.73,8.73,0,0,0,2.88-2.36h-3.6V51.11h15.42V64.44a21.74,21.74,0,0,1-3.3,4.46A20.31,20.31,0,0,1,359,72.35a20.66,20.66,0,0,1-5.13,2.23,21.24,21.24,0,0,1-5.7.77,20.85,20.85,0,0,1-21-21,21.55,21.55,0,0,1,1.56-8.16,21.2,21.2,0,0,1,4.29-6.69,20.36,20.36,0,0,1,6.48-4.5,20,20,0,0,1,8.07-1.65,22.61,22.61,0,0,1,5.82.67,22.22,22.22,0,0,1,4.14,1.5,15.5,15.5,0,0,1,3.3,2.09Zm.6-7.75a11.78,11.78,0,0,0-1.74-.6,19.19,19.19,0,0,0-2-.42A17.63,17.63,0,0,0,348,39,15.59,15.59,0,0,0,342,40.13a15,15,0,0,0-4.8,3.16A14.54,14.54,0,0,0,334,48.11a16.2,16.2,0,0,0-1.17,6.24,15.74,15.74,0,0,0,1.2,6.24,14.21,14.21,0,0,0,3.3,4.83,15.3,15.3,0,0,0,4.89,3.16,15.62,15.62,0,0,0,6,1.13,14.66,14.66,0,0,0,7.5-1.94,16.06,16.06,0,0,0,5.46-5.19V54.71H354.8v1.44h4.8v6a13.5,13.5,0,0,1-11.4,6,14.4,14.4,0,0,1-5.37-1,13.31,13.31,0,0,1-4.38-2.83,13,13,0,0,1-3-4.38,14.17,14.17,0,0,1-1.08-5.61,14.55,14.55,0,0,1,1.05-5.6,13.39,13.39,0,0,1,2.88-4.39,13,13,0,0,1,4.29-2.82,14.17,14.17,0,0,1,5.34-1,11.08,11.08,0,0,1,2,.17c.64.12,1.2.25,1.68.36l1.56.49Z"/><path d="M369.62,34.31H383.3l-2,28.21h-9.6Zm.42,30h12.84v10H370ZM379.28,70V68.63h-5.64V70Zm-2.1-11.29v-20h-1.44v20Z"/></svg>
